HIERARCHY
ROOT Hips
{
  OFFSET 5.84602e-005 68.8428 3.50346
  CHANNELS 6 Xposition Yposition Zposition Zrotation Xrotation Yrotation
  JOINT Spine
  {
    OFFSET 0 8.597 -4.6522
    CHANNELS 3 Zrotation Xrotation Yrotation
    JOINT Spine1
    {
      OFFSET 0 7.8454 0.4098
      CHANNELS 3 Zrotation Xrotation Yrotation
      JOINT Spine2
      {
        OFFSET 0 9.7078 -2.1609
        CHANNELS 3 Zrotation Xrotation Yrotation
        JOINT Neck
        {
          OFFSET 0 21.8761 -0.4549
          CHANNELS 3 Zrotation Xrotation Yrotation
          JOINT Head
          {
            OFFSET 0 12.3537 3.3602
            CHANNELS 3 Zrotation Xrotation Yrotation
            End Site
            {
              OFFSET 0.0001 18.9506 0.5657
            }
          }
        }
        JOINT LeftShoulder
        {
          OFFSET 2.2086 21.1115 7.2329
          CHANNELS 3 Zrotation Xrotation Yrotation
          JOINT LeftArm
          {
            OFFSET 13.1193 3.0282 -4.8998
            CHANNELS 3 Zrotation Xrotation Yrotation
            JOINT LeftForeArm
            {
              OFFSET 27.4081 -0.0973053 -0.2375
              CHANNELS 3 Zrotation Xrotation Yrotation
              JOINT LeftHand
              {
                OFFSET 22.8641 0.0662994 -0.1369
                CHANNELS 3 Zrotation Xrotation Yrotation
                JOINT LeftHandIndex1
                {
                  OFFSET 8.8614 0.775009 2.4612
                  CHANNELS 3 Zrotation Xrotation Yrotation
                  JOINT LeftHandIndex2
                  {
                    OFFSET 3.3146 -0.808304 0.5841
                    CHANNELS 3 Zrotation Xrotation Yrotation
                    JOINT LeftHandIndex3
                    {
                      OFFSET 2.2628 -0.552002 0.3989
                      CHANNELS 3 Zrotation Xrotation Yrotation
                      End Site
                      {
                        OFFSET 1.6102 -0.4807 0.2612
                      }
                    }
                  }
                }
                JOINT LeftHandMiddle1
                {
                  OFFSET 8.9937 0.895004 0.2143
                  CHANNELS 3 Zrotation Xrotation Yrotation
                  JOINT LeftHandMiddle2
                  {
                    OFFSET 4.0984 0.0113983 -0.0242
                    CHANNELS 3 Zrotation Xrotation Yrotation
                    JOINT LeftHandMiddle3
                    {
                      OFFSET 2.2716 0.00689697 -0.0138001
                      CHANNELS 3 Zrotation Xrotation Yrotation
                      End Site
                      {
                        OFFSET 2.0404 -0.1441 0.0027
                      }
                    }
                  }
                }
                JOINT LeftHandRing1
                {
                  OFFSET 8.5234 0.597198 -2.0164
                  CHANNELS 3 Zrotation Xrotation Yrotation
                  JOINT LeftHandRing2
                  {
                    OFFSET 3.7188 -0.188293 -0.2328
                    CHANNELS 3 Zrotation Xrotation Yrotation
                    JOINT LeftHandRing3
                    {
                      OFFSET 2.1191 -0.106598 -0.1332
                      CHANNELS 3 Zrotation Xrotation Yrotation
                      End Site
                      {
                        OFFSET 1.8737 -0.2304 -0.0886
                      }
                    }
                  }
                }
                JOINT LeftHandPinky1
                {
                  OFFSET 7.9094 -0.601089 -3.4825
                  CHANNELS 3 Zrotation Xrotation Yrotation
                  JOINT LeftHandPinky2
                  {
                    OFFSET 2.2874 -0.477005 -0.6314
                    CHANNELS 3 Zrotation Xrotation Yrotation
                    JOINT LeftHandPinky3
                    {
                      OFFSET 1.6774 -0.349396 -0.4633
                      CHANNELS 3 Zrotation Xrotation Yrotation
                      End Site
                      {
                        OFFSET 1.4888 -0.4091 -0.3416
                      }
                    }
                  }
                }
                JOINT LeftHandThumb1
                {
                  OFFSET 1.833 -1.3875 1.3896
                  CHANNELS 3 Zrotation Xrotation Yrotation
                  JOINT LeftHandThumb2
                  {
                    OFFSET 3.4129 -1.121 2.5732
                    CHANNELS 3 Zrotation Xrotation Yrotation
                    JOINT LeftHandThumb3
                    {
                      OFFSET 2.2474 -0.804199 1.6192
                      CHANNELS 3 Zrotation Xrotation Yrotation
                      End Site
                      {
                        OFFSET 1.6527 -0.5689 1.1317
                      }
                    }
                  }
                }
              }
            }
          }
        }
        JOINT RightShoulder
        {
          OFFSET -2.2086 21.1115 7.2329
          CHANNELS 3 Zrotation Xrotation Yrotation
          JOINT RightArm
          {
            OFFSET -13.1216 3.0287 -4.9007
            CHANNELS 3 Zrotation Xrotation Yrotation
            JOINT RightForeArm
            {
              OFFSET -27.4081 -0.0973053 -0.2375
              CHANNELS 3 Zrotation Xrotation Yrotation
              JOINT RightHand
              {
                OFFSET -22.8641 0.0664063 -0.1369
                CHANNELS 3 Zrotation Xrotation Yrotation
                JOINT RightHandIndex1
                {
                  OFFSET -8.8614 0.774994 2.4612
                  CHANNELS 3 Zrotation Xrotation Yrotation
                  JOINT RightHandIndex2
                  {
                    OFFSET -3.3146 -0.808304 0.5841
                    CHANNELS 3 Zrotation Xrotation Yrotation
                    JOINT RightHandIndex3
                    {
                      OFFSET -2.2628 -0.552002 0.3989
                      CHANNELS 3 Zrotation Xrotation Yrotation
                      End Site
                      {
                        OFFSET -1.6102 -0.4807 0.2612
                      }
                    }
                  }
                }
                JOINT RightHandMiddle1
                {
                  OFFSET -8.9937 0.894989 0.2143
                  CHANNELS 3 Zrotation Xrotation Yrotation
                  JOINT RightHandMiddle2
                  {
                    OFFSET -4.0984 0.0113983 -0.0242
                    CHANNELS 3 Zrotation Xrotation Yrotation
                    JOINT RightHandMiddle3
                    {
                      OFFSET -2.2716 0.00691223 -0.0138001
                      CHANNELS 3 Zrotation Xrotation Yrotation
                      End Site
                      {
                        OFFSET -2.0404 -0.1441 0.0027
                      }
                    }
                  }
                }
                JOINT RightHandRing1
                {
                  OFFSET -8.5234 0.597198 -2.0164
                  CHANNELS 3 Zrotation Xrotation Yrotation
                  JOINT RightHandRing2
                  {
                    OFFSET -3.7188 -0.188309 -0.2328
                    CHANNELS 3 Zrotation Xrotation Yrotation
                    JOINT RightHandRing3
                    {
                      OFFSET -2.1191 -0.106598 -0.1332
                      CHANNELS 3 Zrotation Xrotation Yrotation
                      End Site
                      {
                        OFFSET -1.8737 -0.2304 -0.0886
                      }
                    }
                  }
                }
                JOINT RightHandPinky1
                {
                  OFFSET -7.9094 -0.601105 -3.4825
                  CHANNELS 3 Zrotation Xrotation Yrotation
                  JOINT RightHandPinky2
                  {
                    OFFSET -2.2874 -0.477005 -0.6314
                    CHANNELS 3 Zrotation Xrotation Yrotation
                    JOINT RightHandPinky3
                    {
                      OFFSET -1.6774 -0.349396 -0.4633
                      CHANNELS 3 Zrotation Xrotation Yrotation
                      End Site
                      {
                        OFFSET -1.4888 -0.4091 -0.3416
                      }
                    }
                  }
                }
                JOINT RightHandThumb1
                {
                  OFFSET -1.833 -1.38751 1.3896
                  CHANNELS 3 Zrotation Xrotation Yrotation
                  JOINT RightHandThumb2
                  {
                    OFFSET -3.41299 -1.12099 2.5732
                    CHANNELS 3 Zrotation Xrotation Yrotation
                    JOINT RightHandThumb3
                    {
                      OFFSET -2.24741 -0.804108 1.6192
                      CHANNELS 3 Zrotation Xrotation Yrotation
                      End Site
                      {
                        OFFSET -1.6527 -0.5689 1.1317
                      }
                    }
                  }
                }
              }
            }
          }
        }
      }
    }
  }
  JOINT RightUpLeg
  {
    OFFSET -9.1966 3.8861 -0.7581
    CHANNELS 3 Zrotation Xrotation Yrotation
    JOINT RightLeg
    {
      OFFSET -0.7359 -41.0265 0
      CHANNELS 3 Zrotation Xrotation Yrotation
      JOINT RightFoot
      {
        OFFSET 0 -40.2855 0
        CHANNELS 3 Zrotation Xrotation Yrotation
        JOINT RightToeBase
        {
          OFFSET 0 -5.6122 11.7359
          CHANNELS 3 Zrotation Xrotation Yrotation
          End Site
          {
            OFFSET 0 0 7.8731
          }
        }
      }
    }
  }
  JOINT LeftUpLeg
  {
    OFFSET 9.1965 3.8864 -0.7581
    CHANNELS 3 Zrotation Xrotation Yrotation
    JOINT LeftLeg
    {
      OFFSET 0.7359 -41.0268 0
      CHANNELS 3 Zrotation Xrotation Yrotation
      JOINT LeftFoot
      {
        OFFSET 0 -40.2855 0
        CHANNELS 3 Zrotation Xrotation Yrotation
        JOINT LeftToeBase
        {
          OFFSET 0 -5.6122 11.7359
          CHANNELS 3 Zrotation Xrotation Yrotation
          End Site
          {
            OFFSET 0 0 7.8731
          }
        }
      }
    }
  }
}
MOTION
Frames:	4
Frame Time:	0.0333333
5.84602e-005 68.8428 3.50346 0 0 -0 0 0 -0 0 0 -0 0 0 -0 0 0 -0 0 0 -0 0 0 -0 0 0 -0 0 0 -0 0 0 -0 0 0 -0 0 0 -0 0 0 -0 0 0 -0 -0.0146107 -8.87603e-005 -2.63497e-007 2.99804e-018 -2.42657e-020 -1.42182e-022 0 0 -0 -0.0187562 -0.001176 5.858e-005 5.06224e-018 3.88251e-019 1.21329e-020 0 0 -0 -0.012269 -0.00324817 0.000675346 -1.74678e-018 3.88251e-019 -0 0 0 -0 0 0 -0 0 0 -0 0 0 -0 0 0 -0 0 0 -0 0 0 -0 0 0 -0 0 0 -0 0 0 -0 0 0 -0 0.0149955 -9.10982e-005 2.64101e-007 -9.69331e-018 1.21329e-020 -4.7394e-023 0 0 -0 0.0189956 -0.00119102 -5.96516e-005 -5.41541e-019 0 2.42657e-020 0 0 -0 0.0122698 -0.00324857 -0.000673756 -2.00796e-019 0 -1.94126e-019 0 0 -0 0 0 -0 0 0 -0 3.39842 1.33031 -0.0637918 -5.65207e-008 0.834868 -0.000436188 -3.39935 -2.16518 -0.0642563 -8.89002e-024 -1.18485e-023 -1.48106e-024 -3.39844 1.35642 0.0640283 -3.18788e-007 0.782166 -0.000588827 3.39931 -2.13858 0.0634662 1.1399e-023 0 -0 
2.27417 2.46124 6.72391 0.645985 -48.0242 -1.50211 0.547104 6.40452 -0.731049 1.18823 12.8012 -1.53861 1.18823 12.8012 -1.53861 1.28246 38.2494 0.897119 -11.6411 12.6428 6.12098 11.0025 6.9905 -4.69859e-005 -111.3 29.7841 35.1757 0.941568 -52.8748 -3.2565 62.9967 -0.00358083 -18.0012 9.07188e-007 3.77835e-008 -7.89223e-007 -3.25098e-008 -8.48205e-007 -7.02933e-008 8.77697e-007 2.63685e-009 -3.6512e-007 9.07188e-007 3.77835e-008 -7.89223e-007 -0.0146051 -9.00132e-005 3.99759e-007 8.77685e-007 2.68331e-009 -3.6512e-007 9.07188e-007 3.77835e-008 -7.89223e-007 -0.0187584 -0.00117759 5.77392e-005 8.77679e-007 2.69529e-009 -3.65129e-007 9.07188e-007 3.77835e-008 -7.89223e-007 -0.0122821 -0.00325401 0.000675902 8.77677e-007 2.66835e-009 -3.65144e-007 9.07188e-007 3.77835e-008 -7.89223e-007 -3.25098e-008 -8.48205e-007 -7.02933e-008 8.77697e-007 2.63685e-009 -3.6512e-007 -11.0058 6.99084 -0.00323541 111.294 29.783 -35.176 -0.949315 -52.8749 3.24876 -63.0008 -0.00237259 17.9982 6.50874e-008 -8.34665e-007 1.56781e-007 -2.98229e-006 -4.43065e-007 1.23795e-006 6.50874e-008 -8.34665e-007 1.56781e-007 6.50874e-008 -8.34665e-007 1.56781e-007 0.0149811 -9.0013e-005 7.72221e-007 6.50952e-008 -8.34645e-007 1.56891e-007 6.50874e-008 -8.34665e-007 1.56781e-007 0.019012 -0.00119142 -5.74371e-005 6.50992e-008 -8.3464e-007 1.56919e-007 6.50874e-008 -8.34665e-007 1.56781e-007 0.0122708 -0.00324898 -0.000673915 6.5103e-008 -8.3465e-007 1.56869e-007 6.50874e-008 -8.34665e-007 1.56781e-007 -2.98229e-006 -4.43065e-007 1.23795e-006 6.50874e-008 -8.34665e-007 1.56781e-007 -67.0677 -69.9386 -44.6553 -155.321 72.437 152.708 23.8396 20.8204 -1.58238 1.94739e-006 -8.37733e-007 8.39174e-008 38.0616 -32.5761 31.9635 9.97963 16.4599 27.6796 -24.5298 28.9627 -1.72548 -3.18055e-015 -3.18055e-015 -0 
2.27507 2.46084 6.72367 0.645985 -48.0242 -1.50211 0.547104 6.40452 -0.731049 1.18823 12.8012 -1.53861 1.18823 12.8012 -1.53861 1.22993 38.0108 1.18767 -11.6229 12.3833 6.05814 11.0025 6.9905 -4.69859e-005 -111.3 29.7841 35.1757 0.941568 -52.8748 -3.2565 62.9967 -0.00358083 -18.0012 9.07188e-007 3.77835e-008 -7.89223e-007 -3.25098e-008 -8.48205e-007 -7.02933e-008 8.77697e-007 2.63685e-009 -3.6512e-007 9.07188e-007 3.77835e-008 -7.89223e-007 -0.0146051 -9.00132e-005 3.99759e-007 8.77685e-007 2.68332e-009 -3.6512e-007 9.07188e-007 3.77835e-008 -7.89223e-007 -0.0187584 -0.00117759 5.77392e-005 8.77679e-007 2.69529e-009 -3.65129e-007 9.07188e-007 3.77835e-008 -7.89223e-007 -0.0122821 -0.00325401 0.000675902 8.77677e-007 2.66835e-009 -3.65144e-007 9.07188e-007 3.77835e-008 -7.89223e-007 -3.25098e-008 -8.48205e-007 -7.02933e-008 8.77697e-007 2.63685e-009 -3.6512e-007 -11.0058 6.99084 -0.00323541 111.294 29.783 -35.176 -0.949301 -52.8748 3.24878 -63.0007 -0.00237048 17.9982 -2.48673e-006 -8.06949e-007 5.89242e-007 -6.95746e-015 0 1.59028e-015 -1.72804e-006 2.66069e-008 7.17247e-007 -2.48673e-006 -8.06949e-007 5.89242e-007 0.0149931 -9.12419e-005 -5.97055e-007 -1.72799e-006 2.67004e-008 7.17245e-007 -2.48673e-006 -8.06949e-007 5.89242e-007 0.0189888 -0.00119092 -5.80797e-005 -1.72797e-006 2.67209e-008 7.17261e-007 -2.48673e-006 -8.06949e-007 5.89242e-007 0.0123153 -0.00325851 -0.00067765 -1.72798e-006 2.6663e-008 7.17291e-007 -2.48673e-006 -8.06949e-007 5.89242e-007 -6.95746e-015 0 1.59028e-015 -1.72804e-006 2.66069e-008 7.17247e-007 -68.9645 -69.5212 -46.8331 -155.305 72.4469 152.692 23.8366 20.8128 -1.57958 -1.00765e-007 4.11481e-007 -4.99711e-008 38.0618 -32.5777 31.9636 9.97977 16.4625 27.6793 -24.5296 28.9614 -1.72582 -3.18055e-015 0 -5.56597e-015 
2.27598 2.46047 6.72343 0.645984 -48.0242 -1.50211 0.547104 6.40451 -0.731049 1.18823 12.8012 -1.53861 1.18823 12.8012 -1.53861 1.17905 37.7718 1.4772 -11.6051 12.1238 5.99542 11.0025 6.9905 -4.53535e-005 -111.3 29.7841 35.1757 0.941578 -52.8748 -3.2565 62.9967 -0.00358921 -18.0012 -3.25096e-008 -8.48206e-007 -7.0293e-008 8.77697e-007 2.6369e-009 -3.6512e-007 -3.25096e-008 -8.48205e-007 -7.0293e-008 -3.25096e-008 -8.48206e-007 -7.0293e-008 -0.0146186 -8.86472e-005 -4.75506e-007 -3.25172e-008 -8.48197e-007 -7.04012e-008 -3.25096e-008 -8.48206e-007 -7.0293e-008 -0.018757 -0.0011781 5.75358e-005 -3.25204e-008 -8.48194e-007 -7.04315e-008 -3.25096e-008 -8.48206e-007 -7.0293e-008 -0.0122807 -0.00325127 0.000677678 -3.25229e-008 -8.48199e-007 -7.03827e-008 -3.25096e-008 -8.48206e-007 -7.0293e-008 8.77697e-007 2.6369e-009 -3.6512e-007 -3.25096e-008 -8.48205e-007 -7.0293e-008 -11.0058 6.99084 -0.0032357 111.294 29.783 -35.176 -0.949327 -52.8748 3.24875 -63.0008 -0.00237117 17.9982 6.50873e-008 -8.34665e-007 1.56781e-007 -1.72804e-006 2.66068e-008 7.17247e-007 -1.66295e-006 -8.08058e-007 8.74029e-007 6.50873e-008 -8.34665e-007 1.56781e-007 0.0149846 -9.22585e-005 1.47662e-006 -1.66289e-006 -8.07944e-007 8.74136e-007 6.50873e-008 -8.34665e-007 1.56781e-007 0.0189989 -0.00119181 -5.7062e-005 -2.48431e-006 -8.07004e-007 5.89395e-007 6.50873e-008 -8.34665e-007 1.56781e-007 0.0122846 -0.00325092 -0.00067501 -1.66288e-006 -8.07987e-007 8.7416e-007 6.50873e-008 -8.34665e-007 1.56781e-007 -1.72804e-006 2.66068e-008 7.17247e-007 -1.66295e-006 -8.08058e-007 8.74029e-007 -70.7846 -69.0783 -48.9352 -155.289 72.4566 152.677 23.8337 20.8052 -1.57663 7.95139e-016 -7.95139e-016 -0 38.062 -32.5792 31.9636 9.97989 16.4651 27.679 -24.5295 28.9601 -1.72616 -1.66915e-006 6.51969e-007 -2.72797e-006 
